<svg xmlns="http://www.w3.org/2000/svg" version="1.1" width="308.186" height="401.1437" viewBox="0 0 308.186 401.1437">
  <g>
    <path d="M124.87,173.7383c4.6-10.5,12.2-18.4,20-26.4,3.8-3.9,7.6-8.1,8.6-14-6.3,5-12.7,4.5-20.2,4.1a201.4574,201.4574,0,0,0-47.2,2.7c-16.8,3.1-30.5,22.7-30.9,40.5,12.2-2.4,18.2-17.5,32.1-15.7,2.2,2.9,2.8,5.8-.9,8-2.7,1.6-5.7,2.9-8.4,4.4-4.1,2.3-2.7,4.8.1,7.7,13.4-3.2,25.9-10.2,40.1-11.4-8.4,13.8-25.3,11.1-35.8,20.3,12.5-2.5,24.5-6.2,35.5-12.4A18.2346,18.2346,0,0,0,124.87,173.7383Zm-17.8-7.5c-.5-3.9-.9-7.5-1.4-11.1,11.2-1.2,11.7-1,17.8,10C117.57,165.5382,112.97,165.8382,107.07,166.2383Z" />
    <path d="M167.37,229.0382c2-9.9-5.5-24.5-15.5-30.1C150.27,210.9382,157.07,224.0382,167.37,229.0382Z" />
    <path d="M209.57,197.5382c10.5,11.8,21.2,23.8,31.7,35.6C234.97,210.0382,223.77,197.3382,209.57,197.5382Z" />
    <path d="M190.87,207.1383c-1.2,4.9-5.3,9.4-1.9,15.1,12-7.4,14-18,4.9-33.2C192.67,196.7383,192.07,202.0382,190.87,207.1383Z" />
    <path d="M141.07,192.6383c-10.6,10-21.3,19.8-31.5,30.2a18.784,18.784,0,0,0-5.2,10.4,111.5188,111.5188,0,0,0,3.7,44.1c1.1-7.5,1-15,1.1-22.5.3-14.3,5.1-26.7,15.2-37.3,6.9-7.3,12.3-15.9,18.3-24C142.07,193.2383,141.57,192.9382,141.07,192.6383Z" />
    <path d="M235.07,289.8382c-.6-4.7-.9-9.5-2.3-14-5.1-15.7-11.4-19-27.6-16-12.8,2.4-25.7,4.5-36.5,6.3-20.8-5.5-31.5,5.1-40.3,18.9-5.4,8.5-4.4,16.5,2.8,23.7,8.1,8.2,18.1,11.2,29.3,10,15-1.7,30-3.2,44.8-6,7.6-1.4,15-4.8,22.1-8.2C233.07,301.8382,235.87,296.5382,235.07,289.8382Zm-96.5-4.6c7-3,14.2-6.2,22.2-2.6,1.9.8,4.4.6,6.6.5,2.3-.1,5.3-1.7,6.9-.8,7.8,4.7,14.3-1.5,21.5-1.8a6.2784,6.2784,0,0,0,4.3-3.2c3.5-7.3,10.3-7.7,18.3-9.8v13.1c-8.9,3.8-17.2,8.9-26.2,10.9-9.8,2.2-20.4,2.5-30.5,2-7-.3-13.7-1-20.5,1.5-2,.7-4.4.5-6.8.7C132.37,290.0382,135.17,286.6383,138.57,285.2383Zm72,21.3c-5.5-.2-11.1,6.1-16.1-.4-16.4,8-46.5,10.6-62.4-2.2,3.3-5.9,8.2-5.5,12.9-5.7,11.7-.5,23.5-.3,35.2-1.4,6.9-.7,13.7-3.2,20.5-5.1,6.7-1.9,13.3-4.2,20.4-6.4,1.7,4.3,2.9,7.5,4.6,12C219.17,298.1383,218.77,306.8382,210.57,306.5382Z" />
    <path d="M208.87,142.6383a14.8792,14.8792,0,0,1,.8,4.2,33.3323,33.3323,0,0,1-1,5.5c-4,.9-7.3,1.6-10.6,2.3,21.6,9.1,44,4.1,66.6,5.8,5.3-12.9,3.8-20-5.8-28.1-9.8-8.3-21.6-13.3-34.1-10.9-15.4,2.9-30.3,8.5-48,13.6,5.8,4.5,9.3,9.5,13.6,10.1C196.17,146.0382,202.37,143.6383,208.87,142.6383Zm19.6-5.5c13-1.9,19.8,1.7,26.3,14.8-9.2-1-17.6-2-26.3-2.9Z" />
    <path d="M286.07,240.3382c9-23.1,7.9-42.9-3.7-53.5C284.07,205.1383,277.37,222.2383,286.07,240.3382Z" />
    <path d="M24.57,233.6383c-9.8.3-10.3.5-10.6,8.8-.2,5.9-.3,11.8,0,17.6.4,10,2.4,11.2,15.1,9-1.9-5.6-4.7-10.8-5.3-16.3C22.97,246.8382,24.17,240.6383,24.57,233.6383Z" />
    <path fill="#ddd" stroke="#000" stroke-width="2" d="M280.37,327.9382c7.9-15.9,11.2-32,8.3-49.5-1-6.2-.9-12.5-1.2-18.6,2.1-.8,3.2-1.2,4.2-1.7,13.6-5.6,21.9-13.7,12.5-28.9-4.7-7.6-4.9-16.1-3.5-25.2,2.1-13.2,1.8-26.6,1.1-40-6.7-1.4-11.9-2.5-17.6-3.6-.7-4.1-1.3-7.6-1.8-11.1-4-27.2-10.2-53.8-22.1-78.7-8-16.7-18.4-31.6-33.6-42.5a160.173,160.173,0,0,0-59.4-26.3,95.7153,95.7153,0,0,0-28.3-1.4c-21.3,1.7-39.3,11.7-55.6,25-10.8,8.8-20.7,18.6-31.8,26.9-17.4,13.2-26.8,30.8-31.2,51.7-6.1,29.1-5.3,58.3-3.4,87.7.2,3.4,0,6.9,0,10.2-13.1,4.4-17.6,8.6-16.9,17.3,1.1,13,3,25.9,4.8,38.9,1,7.4,2.6,14.8,3.7,22.2,1.1,8.2,3.4,11,11.6,12.7a33.2491,33.2491,0,0,0,9.4.8c8.5-.6,12.3,3.4,15.6,11.1,6.8,15.5,15.2,30.4,23.1,45.4.4.7,1.9.9,3.2,1.4.7-3.4,1.4-6.4,2-9.5,8.8,6.4,17.3,12.5,25.7,18.7.7-.6,1.4-1.1,2-1.7-2.7-8.4-5.3-16.8-8-25.1,1-.2,1.9-.5,2.9-.7a110.4052,110.4052,0,0,1,4.7,10.6,63.8149,63.8149,0,0,0,31.4,37.3c10.5,5.6,21.4,10.4,32.2,15.3,15.3,7,30,6,43.8-4.1,1.8-1.3,5.3-3.4,6.1-2.8,5.9,4.8,9.6-.6,13.4-2.9C251.47,372.4382,268.17,352.3382,280.37,327.9382Zm2-141.1c11.6,10.6,12.7,30.4,3.7,53.5C277.37,222.2383,284.07,205.1383,282.37,186.8382Zm-268.5,73.3c-.3-5.9-.2-11.8,0-17.6.3-8.3.8-8.6,10.6-8.8-.4,7-1.6,13.2-.9,19.2.7,5.5,3.4,10.7,5.3,16.3C16.27,271.3382,14.37,270.1383,13.87,260.1383Zm211-138.7c12.5-2.4,24.3,2.6,34.1,10.9,9.7,8.2,11.1,15.3,5.8,28.1-22.6-1.7-45,3.2-66.6-5.8,3.3-.7,6.6-1.4,10.6-2.3a48.5626,48.5626,0,0,0,1-5.5,24.1208,24.1208,0,0,0-.8-4.2c-6.5,1.1-12.7,3.4-18.4,2.5-4.2-.7-7.8-5.6-13.6-10.1C194.57,129.8382,209.47,124.3382,224.87,121.4382Zm16.3,111.7c-10.5-11.8-21.1-23.8-31.7-35.6C223.77,197.3382,234.97,210.0382,241.17,233.1383Zm-52.2-10.9c-3.4-5.7.7-10.2,1.9-15.1,1.2-5.1,1.8-10.4,3-18.1C202.97,204.2383,200.97,214.8382,188.97,222.2383Zm-21.6,6.8c-10.3-5-17.1-18.1-15.5-30.1C161.87,204.5382,169.37,219.1383,167.37,229.0382Zm-85.1-35.2c10.6-9.2,27.5-6.5,35.8-20.3-14.1,1.2-26.6,8.1-40.1,11.4-2.8-2.9-4.2-5.4-.1-7.7,2.7-1.6,5.7-2.8,8.4-4.4,3.7-2.2,3.1-5,.9-8-13.9-1.7-19.8,13.3-32.1,15.7.4-17.7,14.1-37.3,30.9-40.5,15.4-2.9,31.5-3.4,47.2-2.7,7.6.4,13.9.9,20.2-4.1-1,5.9-4.8,10.1-8.6,14-7.7,8-15.4,15.9-20,26.4a17.0847,17.0847,0,0,1-7.1,7.7C106.77,187.6383,94.77,191.3382,82.27,193.8382Zm26.8,61c-.2,7.5,0,15-1.1,22.5a111.6727,111.6727,0,0,1-3.7-44.1,19.4556,19.4556,0,0,1,5.2-10.4c10.2-10.3,21-20.1,31.5-30.2.5.3,1,.5,1.6.8-6.1,8-11.4,16.7-18.3,24C114.17,228.1383,109.37,240.4382,109.07,254.8382Zm96.2,58c-14.8,2.7-29.8,4.3-44.8,6-11.2,1.2-21.3-1.8-29.3-10-7.2-7.2-8.2-15.3-2.8-23.7,8.9-13.7,19.6-24.4,40.3-18.9,10.8-1.9,23.7-3.9,36.5-6.3,16.2-3,22.5.3,27.6,16,1.4,4.4,1.7,9.3,2.3,14,.8,6.7-2,12-7.7,14.8C220.27,308.0382,212.87,311.4382,205.27,312.8382Z" />
    <path fill="#ddd" d="M200.67,291.7383c-6.8,1.9-13.6,4.4-20.5,5.1-11.7,1.1-23.4.9-35.2,1.4-4.6.2-9.6-.2-12.9,5.7,15.9,12.8,46,10.2,62.4,2.2,5,6.5,10.6.2,16.1.4,8.2.3,8.6-8.4,15.1-9.2-1.7-4.5-3-7.7-4.6-12C213.97,287.5382,207.37,289.8382,200.67,291.7383Z" />
    <path fill="#ddd" d="M141.17,294.8382c6.8-2.5,13.5-1.8,20.5-1.5,10.1.5,20.7.2,30.5-2,9-2,17.3-7,26.2-10.9v-13.1c-8,2.2-14.8,2.6-18.3,9.8a6.2788,6.2788,0,0,1-4.3,3.2c-7.1.3-13.7,6.6-21.5,1.8-1.6-.9-4.5.7-6.9.8-2.2.1-4.7.4-6.6-.5-8-3.5-15.2-.3-22.2,2.6-3.4,1.5-6.2,4.9-4.2,10.4C136.77,295.3382,139.17,295.6383,141.17,294.8382Z" />
    <path fill="#ddd" d="M105.77,155.1383c.4,3.6.9,7.2,1.4,11.1,5.9-.4,10.5-.7,16.5-1.1C117.37,154.1383,116.97,153.8382,105.77,155.1383Z" />
    <path fill="#ddd" d="M228.47,137.1383v11.8c8.7,1,17.1,1.9,26.3,2.9C248.27,138.8382,241.47,135.2382,228.47,137.1383Z" />
  </g>
</svg>
