<svg xmlns="http://www.w3.org/2000/svg">
    <symbol
        id="github"
        viewBox="0 0 24 24"
        fill="none"
        stroke="currentColor"
        stroke-width="2"
        stroke-linecap="round"
        stroke-linejoin="round"
    >
        <path d="M9 19c-5 1.5-5-2.5-7-3m14 6v-3.87a3.37 3.37 0 0 0-.94-2.61c3.14-.35 6.44-1.54 6.44-7A5.44 5.44 0 0 0 20 4.77 5.07 5.07 0 0 0 19.91 1S18.73.65 16 2.48a13.38 13.38 0 0 0-7 0C6.27.65 5.09 1 5.09 1A5.07 5.07 0 0 0 5 4.77a5.44 5.44 0 0 0-1.5 3.78c0 5.42 3.3 6.61 6.44 7A3.37 3.37 0 0 0 9 18.13V22"></path>
    </symbol>

    <symbol
        id="twitter"
        viewBox="0 0 24 24"
        fill="none"
        stroke="currentColor"
        stroke-width="2"
        stroke-linecap="round"
        stroke-linejoin="round"
    >
        <path d="M23 3a10.9 10.9 0 0 1-3.14 1.53 4.48 4.48 0 0 0-7.86 3v1A10.66 10.66 0 0 1 3 4s-4 9 5 13a11.64 11.64 0 0 1-7 2c9 5 20 0 20-11.5a4.5 4.5 0 0 0-.08-.83A7.72 7.72 0 0 0 23 3z"></path>
	</symbol>

    <symbol
        id="bluesky"
        viewBox="0 0 600 530"
        fill="none"
        stroke="currentColor"
        stroke-width="44"
        stroke-linecap="round"
        stroke-linejoin="round"
    >
        <path d="m135.72 44.03c66.496 49.921 138.02 151.14 164.28 205.46 26.262-54.316 97.782-155.54 164.28-205.46 47.98-36.021 125.72-63.892 125.72 24.795 0 17.712-10.155 148.79-16.111 170.07-20.703 73.984-96.144 92.854-163.25 81.433 117.3 19.964 147.14 86.092 82.697 152.22-122.39 125.59-175.91-31.511-189.63-71.766-2.514-7.3797-3.6904-10.832-3.7077-7.8964-0.0174-2.9357-1.1937 0.51669-3.7077 7.8964-13.714 40.255-67.233 197.36-189.63 71.766-64.444-66.128-34.605-132.26 82.697-152.22-67.108 11.421-142.55-7.4491-163.25-81.433-5.9562-21.282-16.111-152.36-16.111-170.07 0-88.687 77.742-60.816 125.72-24.795z"></path>
    </symbol>

    <symbol
        id="sun"
        viewBox="0 0 24 24"
        fill="none"
        stroke="currentColor"
        stroke-width="2"
        stroke-linecap="round"
        stroke-linejoin="round"
    >
        <circle cx="12" cy="12" r="5"></circle>
        <line x1="12" y1="1" x2="12" y2="3"></line>
        <line x1="12" y1="21" x2="12" y2="23"></line>
        <line x1="4.22" y1="4.22" x2="5.64" y2="5.64"></line>
        <line x1="18.36" y1="18.36" x2="19.78" y2="19.78"></line>
        <line x1="1" y1="12" x2="3" y2="12"></line>
        <line x1="21" y1="12" x2="23" y2="12"></line>
        <line x1="4.22" y1="19.78" x2="5.64" y2="18.36"></line>
        <line x1="18.36" y1="5.64" x2="19.78" y2="4.22"></line>
    </symbol>

    <symbol
        id="moon"
        viewBox="0 0 24 24"
        fill="none"
        stroke="currentColor"
        stroke-width="2"
        stroke-linecap="round"
        stroke-linejoin="round"
    >
        <path d="M21 12.79A9 9 0 1 1 11.21 3 7 7 0 0 0 21 12.79z"></path>
    </symbol>

    <symbol
        id="info"
        viewBox="0 0 24 24"
        fill="none"
        stroke="currentColor"
        stroke-width="2"
        stroke-linecap="round"
        stroke-linejoin="round"
        pointer-events="none"
    >
        <circle cx="12" cy="12" r="10"></circle>
        <path d="M9.09 9a3 3 0 0 1 5.83 1c0 2-3 3-3 3"></path>
        <line x1="12" y1="17" x2="12.01" y2="17"></line>
    </symbol>
</svg>
