<svg xmlns="http://www.w3.org/2000/svg">
    <symbol
        id="github"
        viewBox="0 0 24 24"
        fill="none"
        stroke="currentColor"
        stroke-width="2"
        stroke-linecap="round"
        stroke-linejoin="round"
    >
        <path d="M9 19c-5 1.5-5-2.5-7-3m14 6v-3.87a3.37 3.37 0 0 0-.94-2.61c3.14-.35 6.44-1.54 6.44-7A5.44 5.44 0 0 0 20 4.77 5.07 5.07 0 0 0 19.91 1S18.73.65 16 2.48a13.38 13.38 0 0 0-7 0C6.27.65 5.09 1 5.09 1A5.07 5.07 0 0 0 5 4.77a5.44 5.44 0 0 0-1.5 3.78c0 5.42 3.3 6.61 6.44 7A3.37 3.37 0 0 0 9 18.13V22"></path>
    </symbol>

    <symbol
        id="twitter"
        viewBox="0 0 24 24"
        fill="none"
        stroke="currentColor"
        stroke-width="2"
        stroke-linecap="round"
        stroke-linejoin="round"
    >
        <path d="M23 3a10.9 10.9 0 0 1-3.14 1.53 4.48 4.48 0 0 0-7.86 3v1A10.66 10.66 0 0 1 3 4s-4 9 5 13a11.64 11.64 0 0 1-7 2c9 5 20 0 20-11.5a4.5 4.5 0 0 0-.08-.83A7.72 7.72 0 0 0 23 3z"></path>
	</symbol>

    <symbol
        id="mail"
        viewBox="0 0 24 24"
        fill="none"
        stroke="currentColor"
        stroke-width="2"
        stroke-linecap="round"
        stroke-linejoin="round"
    >
        <path d="M4 4h16c1.1 0 2 .9 2 2v12c0 1.1-.9 2-2 2H4c-1.1 0-2-.9-2-2V6c0-1.1.9-2 2-2z"></path>
        <polyline points="22,6 12,13 2,6"></polyline>
    </symbol>

    <symbol
        id="sun"
        viewBox="0 0 24 24"
        fill="none"
        stroke="currentColor"
        stroke-width="2"
        stroke-linecap="round"
        stroke-linejoin="round"
    >
        <circle cx="12" cy="12" r="5"></circle>
        <line x1="12" y1="1" x2="12" y2="3"></line>
        <line x1="12" y1="21" x2="12" y2="23"></line>
        <line x1="4.22" y1="4.22" x2="5.64" y2="5.64"></line>
        <line x1="18.36" y1="18.36" x2="19.78" y2="19.78"></line>
        <line x1="1" y1="12" x2="3" y2="12"></line>
        <line x1="21" y1="12" x2="23" y2="12"></line>
        <line x1="4.22" y1="19.78" x2="5.64" y2="18.36"></line>
        <line x1="18.36" y1="5.64" x2="19.78" y2="4.22"></line>
    </symbol>

    <symbol
        id="moon"
        viewBox="0 0 24 24"
        fill="none"
        stroke="currentColor"
        stroke-width="2"
        stroke-linecap="round"
        stroke-linejoin="round"
    >
        <path d="M21 12.79A9 9 0 1 1 11.21 3 7 7 0 0 0 21 12.79z"></path>
    </symbol>

    <symbol
        id="sovereign-logo"
        viewBox="0 0 512 512"
        fill="none"
        stroke="currentColor"
        stroke-width="2"
        stroke-linecap="round"
        stroke-linejoin="round"
    >
        <path fill="currentColor" d="
      M 254.06 0.00
      L 255.81 0.00
      C 264.19 1.62 266.12 11.73 258.41 15.80
      Q 257.94 16.05 258.09 16.56
      C 260.91 26.71 270.19 53.34 285.31 48.14
      Q 295.35 44.69 301.50 35.74
      Q 301.80 35.31 301.45 34.91
      C 297.15 30.04 301.61 23.41 307.50 24.25
      C 314.33 25.23 314.40 35.70 306.44 37.14
      Q 305.93 37.23 305.83 37.75
      L 297.23 81.69
      Q 297.16 82.07 296.78 82.14
      C 267.71 87.78 242.46 87.28 213.33 82.29
      Q 212.86 82.21 212.77 81.74
      L 204.15 37.72
      Q 204.03 37.15 203.46 37.07
      C 198.07 36.34 195.69 30.93 198.68 26.68
      C 203.18 20.26 214.22 26.93 208.50 35.09
      Q 208.22 35.50 208.50 35.89
      C 214.65 44.61 228.86 54.91 238.31 44.07
      C 245.10 36.27 249.03 26.30 251.96 16.65
      Q 252.13 16.12 251.63 15.86
      C 243.65 11.62 245.81 2.41 254.06 0.00
      Z"
    />
    <path fill="currentColor" d="
      M 213.19 86.60
      C 242.32 91.70 269.68 91.68 298.78 86.24
      A 0.58 0.58 0.0 0 1 299.43 86.59
      C 311.09 114.55 295.41 144.52 266.00 151.74
      Q 257.59 153.81 248.43 152.17
      C 217.75 146.71 201.07 115.76 212.35 87.07
      A 0.76 0.76 0.0 0 1 213.19 86.60
      Z
      M 237.55 120.79
      C 233.70 124.25 229.84 128.90 224.83 122.93
      A 0.51 0.50 28.6 0 0 223.94 123.19
      C 222.33 136.93 240.59 136.24 248.44 133.20
      C 261.57 128.12 242.50 116.32 237.55 120.79
      Z
      M 259.26 128.06
      C 258.36 136.99 291.83 139.47 287.87 122.93
      Q 287.70 122.21 287.24 122.79
      C 281.27 130.35 278.04 122.21 273.50 120.41
      C 269.02 118.62 259.80 122.78 259.26 128.06
      Z"
    />
    <path fill="currentColor" d="
      M 339.95 134.54
      C 337.78 114.25 361.56 102.41 376.55 116.22
      C 383.63 122.74 385.04 133.36 380.73 141.88
      Q 375.18 152.85 361.18 153.76
      Q 360.67 153.79 360.34 154.18
      Q 354.83 160.82 346.13 159.25
      Q 345.62 159.16 345.28 159.55
      L 257.87 257.11
      Q 257.33 257.72 257.39 256.90
      Q 257.94 249.53 254.05 243.31
      Q 253.72 242.80 254.13 242.35
      L 335.75 151.25
      Q 336.12 150.83 335.97 150.29
      Q 333.53 141.76 339.65 135.43
      Q 340.01 135.06 339.95 134.54
      Z"
    />
    <path fill="currentColor" d="
      M 186.16 142.73
      C 188.15 121.46 215.24 122.59 215.99 144.06
      Q 222.05 317.74 227.24 491.45
      Q 227.26 491.98 226.73 491.98
      Q 194.42 492.05 162.26 491.98
      C 149.54 491.96 140.05 462.93 137.60 453.92
      Q 132.19 433.99 129.56 413.49
      Q 121.40 349.81 128.40 285.99
      C 132.83 245.63 142.81 199.00 168.04 166.50
      Q 168.36 166.09 168.06 165.67
      C 159.05 152.78 170.97 137.83 185.66 143.04
      Q 186.11 143.21 186.16 142.73
      Z
      M 209.00 141.86
      A 8.06 8.06 0.0 0 0 200.94 133.80
      A 8.06 8.06 0.0 0 0 192.88 141.86
      A 8.06 8.06 0.0 0 0 200.94 149.92
      A 8.06 8.06 0.0 0 0 209.00 141.86
      Z
      M 187.94 157.65
      A 8.07 8.07 0.0 0 0 179.87 149.58
      A 8.07 8.07 0.0 0 0 171.80 157.65
      A 8.07 8.07 0.0 0 0 179.87 165.72
      A 8.07 8.07 0.0 0 0 187.94 157.65
      Z
      M 215.91 473.82
      A 8.34 8.34 0.0 0 0 207.57 465.48
      A 8.34 8.34 0.0 0 0 199.23 473.82
      A 8.34 8.34 0.0 0 0 207.57 482.16
      A 8.34 8.34 0.0 0 0 215.91 473.82
      Z"
    />
    <path fill="currentColor" d="
      M 326.27 143.07
      L 330.75 141.76
      Q 331.47 141.56 331.32 142.29
      Q 330.63 145.58 331.37 148.82
      A 0.69 0.69 0.0 0 1 330.86 149.64
      Q 324.57 151.13 323.97 157.58
      Q 323.92 158.11 323.56 158.51
      L 294.75 190.71
      A 0.21 0.21 0.0 0 1 294.38 190.56
      Q 295.01 170.82 295.86 151.13
      C 296.23 142.49 295.58 138.60 299.32 133.36
      C 307.93 121.31 325.49 128.48 325.69 142.64
      Q 325.70 143.23 326.27 143.07
      Z
      M 319.17 141.85
      A 8.08 8.08 0.0 0 0 311.09 133.77
      A 8.08 8.08 0.0 0 0 303.01 141.85
      A 8.08 8.08 0.0 0 0 311.09 149.93
      A 8.08 8.08 0.0 0 0 319.17 141.85
      Z"
    />
    <path fill="currentColor" d="
      M 221.35 143.45
      C 241.17 161.91 271.06 161.00 291.06 143.36
      A 0.47 0.47 0.0 0 1 291.84 143.73
      L 289.94 195.56
      Q 289.92 196.06 289.59 196.43
      L 251.32 239.15
      Q 250.91 239.61 250.44 239.20
      C 243.03 232.72 233.78 233.61 224.39 232.93
      A 1.19 1.19 0.0 0 1 223.29 231.78
      L 220.20 143.97
      Q 220.14 142.33 221.35 143.45
      Z"
    />
    <path fill="currentColor" d="
      M 343.77 167.54
      A 0.69 0.69 0.0 0 1 344.84 167.58
      C 365.76 195.46 375.75 232.42 380.98 267.26
      Q 389.78 325.90 385.53 385.09
      C 384.15 404.36 375.79 492.09 347.24 492.03
      Q 316.20 491.97 285.22 492.01
      Q 284.64 492.01 284.66 491.44
      L 293.17 224.64
      Q 293.19 224.02 293.61 223.55
      L 343.77 167.54
      Z
      M 312.79 473.82
      A 8.33 8.33 0.0 0 0 304.46 465.49
      A 8.33 8.33 0.0 0 0 296.13 473.82
      A 8.33 8.33 0.0 0 0 304.46 482.15
      A 8.33 8.33 0.0 0 0 312.79 473.82
      Z"
    />
    <path fill="currentColor" d="
      M 288.25 229.53
      A 0.29 0.29 0.0 0 1 288.75 229.73
      L 288.75 232.01
      Q 288.75 232.61 288.19 232.80
      Q 287.10 233.18 285.92 232.95
      Q 285.15 232.80 285.69 232.23
      L 288.25 229.53
      Z"
    />
    <path fill="currentColor" d="
      M 247.24 242.27
      Q 255.29 249.85 252.56 259.16
      C 248.55 272.84 236.67 271.92 225.22 271.01
      Q 224.55 270.95 224.53 270.29
      L 223.44 237.54
      Q 223.43 237.06 223.91 237.09
      C 231.46 237.63 241.29 236.68 247.24 242.27
      Z"
    />
    <path fill="currentColor" d="
      M 286.94 270.84
      C 276.77 272.19 265.38 272.92 260.20 261.60
      Q 259.96 261.08 260.35 260.65
      L 280.60 238.06
      Q 281.00 237.61 281.61 237.57
      L 287.82 237.12
      Q 288.57 237.06 288.55 237.81
      L 287.47 270.26
      Q 287.45 270.78 286.94 270.84
      Z"
    />
    <path fill="currentColor" d="
      M 288.69 512.00
      L 285.19 512.00
      Q 267.16 509.37 262.23 493.56
      Q 260.92 489.36 260.94 481.78
      Q 261.17 401.16 260.82 320.13
      Q 260.82 319.50 260.19 319.50
      L 251.80 319.50
      Q 251.23 319.50 251.23 320.07
      Q 251.28 368.66 251.23 417.24
      C 251.21 436.32 251.65 456.26 251.03 475.54
      C 250.85 481.09 251.55 487.31 250.21 492.21
      Q 245.51 509.50 226.44 512.00
      L 223.44 512.00
      C 215.05 511.07 204.33 505.40 201.59 496.79
      Q 201.42 496.25 201.99 496.25
      L 231.22 496.25
      Q 231.69 496.25 231.68 495.78
      L 225.49 300.10
      Q 225.47 299.58 225.81 299.20
      L 256.48 264.96
      Q 256.85 264.55 257.14 265.02
      C 264.66 277.27 273.71 275.59 286.74 275.25
      Q 287.31 275.24 287.29 275.81
      L 280.31 495.77
      Q 280.29 496.25 280.77 496.25
      L 310.23 496.25
      A 0.43 0.43 0.0 0 1 310.61 496.89
      Q 303.46 510.23 288.69 512.00
      Z"
    />
    <path fill="currentColor" d="
      M 225.17 275.31
      C 230.55 275.22 235.55 276.14 241.02 275.39
      A 0.21 0.21 0.0 0 1 241.21 275.74
      L 225.96 292.73
      Q 225.29 293.47 225.26 292.48
      L 224.67 275.83
      Q 224.66 275.32 225.17 275.31
      Z"
    />
    </symbol>
</svg>
